<?xml version="1.0" encoding="UTF-8"?>
<svg xmlns="http://www.w3.org/2000/svg" style="height: 0; width: 0; position: absolute; visibility: hidden">
  <symbol id="logo" class="h-5 w-5" viewBox="0 0 20 20" fill="currentColor">
    <polyline points="2,16 2,4 10,10 18,4 18,16" fill="none" stroke="#092333" stroke-width="1.2px" />
    <polyline points="16,16 16,8 8,16 16,16" fill="#003264" />
    <polyline points="4,16 4,8 10,12" fill="#00B849" />
  </symbol>
  <symbol id="usersColor" x="0px" y="0px" viewBox="0 0 448.943 448.943" style="enable-background:new 0 0 448.943 448.943;" xml:space="preserve">
    <path style="fill:#1EA6C6;" d="M246.375,255.051c20.52,0,40.39-7.91,57.98-22.75v62.53h-26.9v125.4c-10.16,1.39-20.54,2.11-31.08,2.11c-58.79,0-112.38-22.3-152.75-58.91v-0.13c0-60.89,35.63-113.45,87.17-137.98 C200.165,244.641,222.845,255.051,246.375,255.051z"/>
    <path style="fill:#008DB3;" d="M382.945,294.83h-24.55l-49.38-66.66c0.99-0.93,1.98-1.88,2.95-2.85 C342.665,239.931,367.715,264.491,382.945,294.83z"/>
    <path style="fill:#FCD09F;" d="M246.375,33.005c46.66,0,84.49,37.82,84.49,84.48c0,46.67-37.83,110.49-84.49,110.49s-84.49-63.82-84.49-110.49C161.885,70.825,199.715,33.005,246.375,33.005z"/>
    <path style="fill:#EF806F;" d="M175.17,198.272c2.59,3.69,5.27,7.15,8.04,10.4l-8.43,4.01c-28.06,13.35-51.8,34.24-68.67,60.41c-13.72,21.29-22.32,45.29-25.31,70.31c-30.49-8.31-58.05-23.72-80.8-44.35v-0.11c0-53.06,31.05-98.86,75.96-120.24c16.88,16.84,36.64,25.91,57.14,25.91c13.43,0,26.55-3.89,38.74-11.31C172.91,194.982,174.03,196.642,175.17,198.272z"/>
    <path style="fill:#EFC59C;" d="M147.89,117.482c0,17.54,4.56,36.84,12.68,54.98c-8.49,5.38-17.76,8.55-27.47,8.55c-40.66,0-73.62-55.61-73.62-96.28c0-40.66,32.96-73.61,73.62-73.61c22.55,0,42.74,10.14,56.24,26.11 C164.27,55.112,147.89,84.422,147.89,117.482z"/>
    <polygon style="fill:#EF806F;" points="351.348,308.827 318.35,264.293 318.35,308.827 291.451,308.827 291.451,437.821 448.943,437.821 448.943,308.827 	"/>
    <rect x="322.949" y="347.988" style="fill:#FFFFFF;" width="94.495" height="15"/>
    <rect x="322.949" y="383.986" style="fill:#FFFFFF;" width="94.495" height="15"/>
  </symbol>
  <symbol id="serverColor" x="0px" y="0px" viewBox="0 0 59 59" style="enable-background:new 0 0 59 59;" xml:space="preserve">
    <path style="fill:#556080;" d="M54.892,19H4.108C2.116,19,0.5,17.384,0.5,15.392V3.608C0.5,1.616,2.116,0,4.108,0h50.783 C56.884,0,58.5,1.616,58.5,3.608v11.783C58.5,17.384,56.884,19,54.892,19z"/>
    <path style="fill:#38454F;" d="M54.892,38H4.108C2.116,38,0.5,36.384,0.5,34.392V22.608C0.5,20.616,2.116,19,4.108,19h50.783c1.993,0,3.608,1.616,3.608,3.608v11.783C58.5,36.384,56.884,38,54.892,38z"/>
    <path style="fill:#556080;" d="M54.892,57H4.108C2.116,57,0.5,55.384,0.5,53.392V41.608C0.5,39.616,2.116,38,4.108,38h50.783c1.993,0,3.608,1.616,3.608,3.608v11.783C58.5,55.384,56.884,57,54.892,57z"/>
    <circle style="fill:#8697CB;" cx="10" cy="9.5" r="3.5"/>
    <circle style="fill:#8697CB;" cx="49.5" cy="8" r="1"/>
    <circle style="fill:#8697CB;" cx="45.5" cy="8" r="1"/>
    <circle style="fill:#8697CB;" cx="51.5" cy="11" r="1"/>
    <circle style="fill:#8697CB;" cx="47.5" cy="11" r="1"/>
    <circle style="fill:#8697CB;" cx="41.5" cy="8" r="1"/>
    <circle style="fill:#8697CB;" cx="43.5" cy="11" r="1"/>
    <circle style="fill:#8697CB;" cx="37.5" cy="8" r="1"/>
    <circle style="fill:#8697CB;" cx="39.5" cy="11" r="1"/>
    <circle style="fill:#8697CB;" cx="33.5" cy="8" r="1"/>
    <circle style="fill:#8697CB;" cx="35.5" cy="11" r="1"/>
    <circle style="fill:#8697CB;" cx="10" cy="28.5" r="3.5"/>
    <circle style="fill:#8697CB;" cx="49.5" cy="27" r="1"/>
    <circle style="fill:#8697CB;" cx="45.5" cy="27" r="1"/>
    <circle style="fill:#8697CB;" cx="51.5" cy="30" r="1"/>
    <circle style="fill:#8697CB;" cx="47.5" cy="30" r="1"/>
    <circle style="fill:#8697CB;" cx="41.5" cy="27" r="1"/>
    <circle style="fill:#8697CB;" cx="43.5" cy="30" r="1"/>
    <circle style="fill:#8697CB;" cx="37.5" cy="27" r="1"/>
    <circle style="fill:#8697CB;" cx="39.5" cy="30" r="1"/>
    <circle style="fill:#8697CB;" cx="33.5" cy="27" r="1"/>
    <circle style="fill:#8697CB;" cx="35.5" cy="30" r="1"/>
    <circle style="fill:#8697CB;" cx="10" cy="47.5" r="3.5"/>
    <circle style="fill:#8697CB;" cx="49.5" cy="46" r="1"/>
    <circle style="fill:#8697CB;" cx="45.5" cy="46" r="1"/>
    <circle style="fill:#8697CB;" cx="51.5" cy="49" r="1"/>
    <circle style="fill:#8697CB;" cx="47.5" cy="49" r="1"/>
    <circle style="fill:#8697CB;" cx="41.5" cy="46" r="1"/>
    <circle style="fill:#8697CB;" cx="43.5" cy="49" r="1"/>
    <circle style="fill:#8697CB;" cx="37.5" cy="46" r="1"/>
    <circle style="fill:#8697CB;" cx="39.5" cy="49" r="1"/>
    <circle style="fill:#8697CB;" cx="33.5" cy="46" r="1"/>
    <circle style="fill:#8697CB;" cx="35.5" cy="49" r="1"/>
  </symbol>

  <symbol id="serverColorInfo" x="0px" y="0px" viewBox="0 0 59 59" style="enable-background:new 0 0 59 59;" xml:space="preserve">
    <path style="fill:#556080;" d="M54.892,19H4.108C2.116,19,0.5,17.384,0.5,15.392V3.608C0.5,1.616,2.116,0,4.108,0h50.783 C56.884,0,58.5,1.616,58.5,3.608v11.783C58.5,17.384,56.884,19,54.892,19z"/>
    <path style="fill:#38454F;" d="M54.892,38H4.108C2.116,38,0.5,36.384,0.5,34.392V22.608C0.5,20.616,2.116,19,4.108,19h50.783c1.993,0,3.608,1.616,3.608,3.608v11.783C58.5,36.384,56.884,38,54.892,38z"/>
    <path style="fill:#556080;" d="M54.892,57H4.108C2.116,57,0.5,55.384,0.5,53.392V41.608C0.5,39.616,2.116,38,4.108,38h50.783c1.993,0,3.608,1.616,3.608,3.608v11.783C58.5,55.384,56.884,57,54.892,57z"/>
    <circle style="fill:#8697CB;" cx="10" cy="9.5" r="3.5"/>
    <circle style="fill:#8697CB;" cx="49.5" cy="8" r="1"/>
    <circle style="fill:#8697CB;" cx="45.5" cy="8" r="1"/>
    <circle style="fill:#8697CB;" cx="51.5" cy="11" r="1"/>
    <circle style="fill:#8697CB;" cx="47.5" cy="11" r="1"/>
    <circle style="fill:#8697CB;" cx="41.5" cy="8" r="1"/>
    <circle style="fill:#8697CB;" cx="43.5" cy="11" r="1"/>
    <circle style="fill:#8697CB;" cx="37.5" cy="8" r="1"/>
    <circle style="fill:#8697CB;" cx="39.5" cy="11" r="1"/>
    <circle style="fill:#8697CB;" cx="33.5" cy="8" r="1"/>
    <circle style="fill:#8697CB;" cx="35.5" cy="11" r="1"/>
    <circle style="fill:#8697CB;" cx="10" cy="28.5" r="3.5"/>
    <circle style="fill:#8697CB;" cx="49.5" cy="27" r="1"/>
    <circle style="fill:#8697CB;" cx="45.5" cy="27" r="1"/>
    <circle style="fill:#8697CB;" cx="51.5" cy="30" r="1"/>
    <circle style="fill:#8697CB;" cx="47.5" cy="30" r="1"/>
    <circle style="fill:#8697CB;" cx="41.5" cy="27" r="1"/>
    <circle style="fill:#8697CB;" cx="43.5" cy="30" r="1"/>
    <circle style="fill:#8697CB;" cx="37.5" cy="27" r="1"/>
    <circle style="fill:#8697CB;" cx="39.5" cy="30" r="1"/>
    <circle style="fill:#8697CB;" cx="33.5" cy="27" r="1"/>
    <circle style="fill:#8697CB;" cx="35.5" cy="30" r="1"/>
    <circle style="fill:#8697CB;" cx="10" cy="47.5" r="3.5"/>
    <circle style="fill:#8697CB;" cx="49.5" cy="46" r="1"/>
    <circle style="fill:#8697CB;" cx="45.5" cy="46" r="1"/>
    <circle style="fill:#8697CB;" cx="51.5" cy="49" r="1"/>
    <circle style="fill:#8697CB;" cx="47.5" cy="49" r="1"/>
    <circle style="fill:#8697CB;" cx="41.5" cy="46" r="1"/>
    <circle style="fill:#8697CB;" cx="43.5" cy="49" r="1"/>
    <circle style="fill:#8697CB;" cx="37.5" cy="46" r="1"/>
    <circle style="fill:#8697CB;" cx="39.5" cy="49" r="1"/>
    <circle style="fill:#8697CB;" cx="33.5" cy="46" r="1"/>
    <circle style="fill:#8697CB;" cx="35.5" cy="49" r="1"/>
    <path style="fill:#EFC41A;" d="M57.261,59H33.57c-0.955,0-1.55-1.036-1.069-1.861l11.845-20.306c0.478-0.819,1.66-0.819,2.138,0 L58.33,57.139C58.811,57.964,58.216,59,57.261,59z"/>
    <path style="fill:#FFFFFF;" d="M45.5,52c-0.552,0-1-0.448-1-1v-8c0-0.552,0.448-1,1-1s1,0.448,1,1v8	C46.5,51.552,46.052,52,45.5,52z"/>
    <path style="fill:#FFFFFF;" d="M45.5,56c-0.26,0-0.52-0.11-0.71-0.29c-0.18-0.19-0.29-0.45-0.29-0.71c0-0.26,0.11-0.52,0.29-0.71c0.38-0.37,1.04-0.37,1.42,0c0.18,0.19,0.29,0.45,0.29,0.71c0,0.26-0.11,0.52-0.29,0.71C46.02,55.89,45.77,56,45.5,56z"/>
  </symbol>

  <symbol id="serverColorPlus" x="0px" y="0px" viewBox="0 0 59 59" style="enable-background:new 0 0 59 59;" xml:space="preserve">
    <path style="fill:#556080;" d="M54.392,19H3.608C1.616,19,0,17.384,0,15.392V3.608C0,1.616,1.616,0,3.608,0h50.783 C56.384,0,58,1.616,58,3.608v11.783C58,17.384,56.384,19,54.392,19z"/>
    <path style="fill:#38454F;" d="M54.392,38H3.608C1.616,38,0,36.384,0,34.392V22.608C0,20.616,1.616,19,3.608,19h50.783 C56.384,19,58,20.616,58,22.608v11.783C58,36.384,56.384,38,54.392,38z"/>
    <path style="fill:#556080;" d="M54.392,57H3.608C1.616,57,0,55.384,0,53.392V41.608C0,39.616,1.616,38,3.608,38h50.783 C56.384,38,58,39.616,58,41.608v11.783C58,55.384,56.384,57,54.392,57z"/>
    <circle style="fill:#8697CB;" cx="9.5" cy="9.5" r="3.5"/>
    <circle style="fill:#8697CB;" cx="49" cy="8" r="1"/>
    <circle style="fill:#8697CB;" cx="45" cy="8" r="1"/>
    <circle style="fill:#8697CB;" cx="51" cy="11" r="1"/>
    <circle style="fill:#8697CB;" cx="47" cy="11" r="1"/>
    <circle style="fill:#8697CB;" cx="41" cy="8" r="1"/>
    <circle style="fill:#8697CB;" cx="43" cy="11" r="1"/>
    <circle style="fill:#8697CB;" cx="37" cy="8" r="1"/>
    <circle style="fill:#8697CB;" cx="39" cy="11" r="1"/>
    <circle style="fill:#8697CB;" cx="33" cy="8" r="1"/>
    <circle style="fill:#8697CB;" cx="35" cy="11" r="1"/>
    <circle style="fill:#8697CB;" cx="9.5" cy="28.5" r="3.5"/>
    <circle style="fill:#8697CB;" cx="49" cy="27" r="1"/>
    <circle style="fill:#8697CB;" cx="45" cy="27" r="1"/>
    <circle style="fill:#8697CB;" cx="51" cy="30" r="1"/>
    <circle style="fill:#8697CB;" cx="47" cy="30" r="1"/>
    <circle style="fill:#8697CB;" cx="41" cy="27" r="1"/>
    <circle style="fill:#8697CB;" cx="43" cy="30" r="1"/>
    <circle style="fill:#8697CB;" cx="37" cy="27" r="1"/>
    <circle style="fill:#8697CB;" cx="39" cy="30" r="1"/>
    <circle style="fill:#8697CB;" cx="33" cy="27" r="1"/>
    <circle style="fill:#8697CB;" cx="35" cy="30" r="1"/>
    <circle style="fill:#8697CB;" cx="9.5" cy="47.5" r="3.5"/>
    <circle style="fill:#8697CB;" cx="49" cy="46" r="1"/>
    <circle style="fill:#8697CB;" cx="45" cy="46" r="1"/>
    <circle style="fill:#8697CB;" cx="51" cy="49" r="1"/>
    <circle style="fill:#8697CB;" cx="47" cy="49" r="1"/>
    <circle style="fill:#8697CB;" cx="41" cy="46" r="1"/>
    <circle style="fill:#8697CB;" cx="43" cy="49" r="1"/>
    <circle style="fill:#8697CB;" cx="37" cy="46" r="1"/>
    <circle style="fill:#8697CB;" cx="39" cy="49" r="1"/>
    <circle style="fill:#8697CB;" cx="33" cy="46" r="1"/>
    <circle style="fill:#8697CB;" cx="35" cy="49" r="1"/>
    <circle style="fill:#71C386;" cx="47" cy="47" r="12"/>
    <path style="fill:#FFFFFF;" d="M53,46h-5v-5c0-0.552-0.448-1-1-1s-1,0.448-1,1v5h-5c-0.552,0-1,0.448-1,1s0.448,1,1,1h5v5
      c0,0.552,0.448,1,1,1s1-0.448,1-1v-5h5c0.552,0,1-0.448,1-1S53.552,46,53,46z"/>
  </symbol>

  <symbol id="mapColor" x="0px" y="0px" viewBox="0 0 495 495" style="enable-background:new 0 0 495 495;" xml:space="preserve">
    <rect x="227.5" y="368.525" style="fill:#D8D7DA;" width="40" height="56.475"/>
    <rect x="110" y="425" style="fill:#C6C5CA;" width="275" height="40"/>
    <polygon style="fill:#006DF0;" points="0,30 0,161.699 131.698,30 	"/>
    <polygon style="fill:#006DF0;" points="247.5,230.979 244.06,227.539 193.074,278.525 247.5,278.525"/>
    <polygon style="fill:#006DF0;" points="204.106,78.236 172.068,46.198 0,218.268 0,278.525 3.818,278.525"/>
    <polygon style="fill:#006DF0;" points="215.776,199.254 177.717,161.195 60.387,278.525 136.505,278.525"/>
    <polygon style="fill:#006DF0;" points="247.5,34.843 247.5,30 212.438,30 232.391,49.952"/>
    <polygon style="fill:#006DF0;" points="206.001,132.911 247.5,174.41 247.5,91.412"/>
    <polygon style="fill:#004FAC;" points="390.947,30 495,134.053 495,30"/>
    <polygon style="fill:#004FAC;" points="252.343,30 247.5,30 247.5,34.843"/>
    <polygon style="fill:#004FAC;" points="247.5,174.41 287.715,214.625 403.359,98.981 334.377,30 308.912,30 247.5,91.412"/>
    <polygon style="fill:#004FAC;" points="295.046,278.525 247.5,230.979 247.5,278.525 	"/>
    <polygon style="fill:#004FAC;" points="316,242.91 351.615,278.525 495,278.525 495,190.623 431.643,127.266"/>
    <rect y="278.525" style="fill:#E0E0E2;" width="495" height="90"/>
    <polygon style="fill:#2488FF;" points="334.377,30 403.359,98.981 287.715,214.625 247.5,174.41 206.001,132.911 308.912,30 252.343,30 247.5,34.843 232.391,49.952 212.438,30 131.698,30 0,161.699 0,218.268 172.068,46.198 204.106,78.236 3.818,278.525 60.387,278.525 177.717,161.195 215.776,199.254 136.505,278.525 193.074,278.525 244.06,227.539 247.5,230.979 295.046,278.525 351.615,278.525 316,242.91 431.643,127.266 495,190.623 495,134.053 390.947,30"/>
  </symbol>
</svg>




