<?xml version="1.0" encoding="UTF-8"?>
<svg xmlns="http://www.w3.org/2000/svg" style="height: 0; width: 0; position: absolute; visibility: hidden">
  <symbol id="logo2" class="h-5 w-5" viewBox="0 0 20 20" fill="currentColor">
    <polyline points="2,16 2,4 10,10 18,4 18,16" fill="none" stroke="#092333" />
    <polyline points="16,16 16,8 8,16 16,16" fill="#003264" />
    <polyline points="4,16 4,8 10,12" fill="#00B849" />
  </symbol>

    <symbol id="logo" width="512px" height="512px" viewBox="0 0 512 512" stroke="none" stroke-width="1" fill="none" fill-rule="evenodd">
        <g id="Group-3">
            <g id="Group" transform="translate(0.000000, 60.000000)">
                <path d="M164.534917,185.94989 C165.397273,185.767745 166.329116,185.914578 167.126043,186.433562 C167.527983,186.695317 167.870812,187.038147 168.132567,187.440086 L168.132567,187.440086 L279.69344,358.747845 C280.212424,359.544773 280.359257,360.476615 280.177112,361.338971 C279.994967,362.201328 279.483844,362.994198 278.686916,363.513182 C278.127737,363.877336 277.474809,364.071198 276.807509,364.071198 L276.807509,364.071198 L53.6857642,364.071198 C52.7347447,364.071198 51.8737582,363.685721 51.2505265,363.062489 C50.6272948,362.439257 50.241818,361.578271 50.241818,360.627251 C50.241818,359.959952 50.4356793,359.307023 50.7998335,358.747845 L50.7998335,358.747845 L162.360706,187.440086 C162.87969,186.643158 163.67256,186.132035 164.534917,185.94989 Z" id="Triangle" stroke="#00B849" stroke-width="0.765321375" fill="#00B849" transform="translate(165.246637, 273.380615) rotate(90.000000) translate(-165.246637, -273.380615) "></path>
                <path d="M203.425458,160.792612 C203.932912,160.792612 204.419582,160.994203 204.778398,161.353036 L204.778398,161.353036 L428.952615,385.537511 C429.326202,385.911115 429.512989,386.400776 429.512978,386.890433 C429.512966,387.38009 429.326157,387.869743 428.952553,388.24333 C428.593742,388.602125 428.107099,388.803693 427.599674,388.803693 L427.599674,388.803693 L203.425458,388.803693 C202.897114,388.803693 202.418788,388.589539 202.072548,388.243299 C201.726308,387.89706 201.512154,387.418734 201.512154,386.89039 L201.512154,386.89039 L201.512154,162.705915 C201.512154,162.177571 201.726308,161.699245 202.072548,161.353005 C202.418788,161.006766 202.897114,160.792612 203.425458,160.792612 Z" id="Triangle-Copy" stroke="#003264" stroke-width="3.82660688" fill="#003264" transform="translate(318.218236, 272.092183) rotate(270.000000) translate(-318.218236, -272.092183) "></path>
                <path d="M3.82772527,5.67914831 C4.23408336,5.67938584 4.63007787,5.80904916 4.96217047,6.05722893 C168.596968,127.292068 251.803249,189.67528 254.436916,193.31264 C254.681894,193.650978 255.192182,194.810268 255.968657,196.789519 C256.762765,194.814911 257.283498,193.658404 257.530964,193.320056 C260.191379,189.682594 343.397751,127.29598 507.039951,6.05565469 C507.463046,5.74128383 507.973417,5.62869026 508.456436,5.70053426 C508.94045,5.77252624 509.396948,6.02957975 509.71118,6.45405749 C509.954834,6.7831949 510.086457,7.18182432 510.086697,7.59021462 L510.086697,7.59021462 L510.086697,386.469435 C510.086697,386.997779 509.872543,387.476105 509.526303,387.822345 C509.180063,388.168585 508.701737,388.382739 508.173393,388.382739 L508.173393,388.382739 L485.213752,388.382739 C484.685408,388.382739 484.207082,388.168585 483.860842,387.822345 C483.514602,387.476105 483.300448,386.997779 483.300448,386.469435 L483.300448,386.469435 L483.300448,57.3114351 C481.307304,58.8107302 480.236964,59.6158911 480.236964,59.6158911 C480.236964,59.6158911 480.231553,59.619962 480.220783,59.6280637 L479.980605,59.808738 C475.906019,62.8738615 423.914294,101.985138 370.944405,141.846759 L370.944405,141.846759 L364.186351,146.932501 C333.614458,169.939605 303.38154,192.696751 282.512641,208.417548 C273.771351,215.002469 266.672873,220.352942 261.880376,223.970295 C259.630568,225.668439 257.888699,226.98483 256.723306,227.867928 L256.723306,227.867928 L147.928078,146.931838 L141.162025,141.846105 L28.6995516,57.3132101 L28.6995516,386.469435 C28.6995516,386.997779 28.4853978,387.476105 28.139158,387.822345 C27.7929181,388.168585 27.3145923,388.382739 26.7862481,388.382739 L26.7862481,388.382739 L3.82660688,388.382739 C3.29826272,388.382739 2.81993686,388.168585 2.47369704,387.822345 C2.12745722,387.476105 1.91330344,386.997779 1.91330344,386.469435 L1.91330344,386.469435 L1.91330311,7.59133361 C1.91361211,7.06298933 2.12804563,6.58478854 2.47448797,6.23875103 C2.82093019,5.89271365 3.29938117,5.67883947 3.82772527,5.67914831 Z" id="Rectangle" stroke="#092333" stroke-width="3.82660688" fill="#092333"></path>
            </g>
            <rect id="Rectangle" x="0" y="0" width="512" height="512"></rect>
        </g>
</symbol>
</svg>




